<svg width="200" height="167" viewBox="0 0 200 167" fill="none" xmlns="http://www.w3.org/2000/svg">
<path d="M180.578 161.777C201.256 135.124 201.853 121.191 198.409 113.372C194.96 105.532 188.178 105.496 183.902 95.455C177.619 80.6952 189.417 71.7913 184.506 59.3079C178.866 44.9699 160.909 51.13 147.374 33.3971C137.437 20.3766 142.571 11.2829 132.927 4.38636C122.551 -3.03447 105.904 -0.154437 95.0671 6.45585C80.9433 15.0787 82.2007 26.6825 70.991 29.4228C59.6812 32.1882 55.1 21.182 41.2452 22.8445C31.8362 23.9723 21.538 31.175 16.7646 40.7602C10.0196 54.3041 30.5038 67.3651 26.133 87.2796C22.8929 102.045 9.90228 102.761 3.16332 119.341C-2.89173 134.241 0.834793 150.316 5.27884 162.089L180.578 161.777Z" fill="#FCFCFF"/>
<path d="M101.297 151.403H97.446C96.8141 151.403 96.2896 150.879 96.2896 150.247C96.2896 149.604 96.8141 149.08 97.446 149.08H101.297C101.929 149.08 102.454 149.604 102.454 150.247C102.454 150.879 101.929 151.403 101.297 151.403Z" fill="black"/>
<path d="M102.263 149.592C102.048 149.902 101.691 150.104 101.297 150.104H97.4462C97.0528 150.104 96.6951 149.902 96.4924 149.592C96.6951 149.282 97.0528 149.08 97.4462 149.08H101.297C101.691 149.08 102.048 149.282 102.263 149.592Z" fill="black"/>
<path d="M132.677 153.632H109.297V146.851H132.677V153.632Z" fill="black"/>
<g style="mix-blend-mode:multiply">
<path d="M132.677 153.632H109.297V150.247H132.677V153.632Z" fill="black"/>
</g>
<path opacity="0.5" d="M132.677 148.496H109.297V146.851H132.677V148.496Z" fill="black"/>
<path d="M100.594 148.96L109.297 146.851V153.632L100.594 151.522V148.96Z" fill="black"/>
<g style="mix-blend-mode:multiply">
<path d="M100.594 150.247H109.297V153.632L100.594 151.522V150.247Z" fill="black"/>
</g>
<path opacity="0.5" d="M100.594 148.96L109.297 146.851V148.496L100.594 149.58V148.96Z" fill="black"/>
<g style="mix-blend-mode:multiply">
<path d="M100.594 148.96L109.297 146.851V153.632L100.594 151.522V148.96Z" fill="black"/>
</g>
<path d="M133.858 151.522L132.677 153.632V146.851L133.858 148.96V151.522Z" fill="black"/>
<g style="mix-blend-mode:multiply">
<path d="M133.858 151.522L132.677 153.632V150.247H133.858V151.522Z" fill="black"/>
</g>
<path opacity="0.5" d="M133.858 149.58L132.677 148.496V146.851L133.858 148.96V149.58Z" fill="black"/>
<g style="mix-blend-mode:multiply">
<path d="M133.858 151.522L132.677 153.632V146.851L133.858 148.96V151.522Z" fill="black"/>
</g>
<path fill-rule="evenodd" clip-rule="evenodd" d="M56.7305 143.967C56.7305 153.548 48.957 161.318 39.3593 161.318C29.7735 161.318 22 153.548 22 143.967C22 134.387 29.7735 126.617 39.3593 126.617C48.957 126.617 56.7305 134.387 56.7305 143.967ZM50.9003 143.967C50.9003 137.604 45.7379 132.444 39.3593 132.444C32.9926 132.444 27.8301 137.604 27.8301 143.967C27.8301 150.331 32.9926 155.491 39.3593 155.491C45.7379 155.491 50.9003 150.331 50.9003 143.967V143.967Z" fill="#1D1D1B"/>
<path d="M44.2596 143.967C44.2596 146.672 42.0659 148.865 39.3594 148.865C36.6649 148.865 34.4712 146.672 34.4712 143.967C34.4712 141.262 36.6649 139.07 39.3594 139.07C42.0659 139.07 44.2596 141.262 44.2596 143.967Z" fill="black"/>
<path fill-rule="evenodd" clip-rule="evenodd" d="M121.84 126.617C131.426 126.617 139.199 134.387 139.199 143.967C139.199 153.548 131.426 161.318 121.84 161.318C112.254 161.318 104.48 153.548 104.48 143.967C104.48 134.387 112.254 126.617 121.84 126.617ZM121.84 155.491C128.206 155.491 133.369 150.331 133.369 143.967C133.369 137.604 128.206 132.444 121.84 132.444C115.473 132.444 110.299 137.604 110.299 143.967C110.299 150.331 115.473 155.491 121.84 155.491Z" fill="#1D1D1B"/>
<path d="M121.84 139.07C124.546 139.07 126.728 141.262 126.728 143.967C126.728 146.672 124.546 148.865 121.84 148.865C119.133 148.865 116.939 146.672 116.939 143.967C116.939 141.262 119.133 139.07 121.84 139.07Z" fill="black"/>
<path d="M71.8005 117.763H55.55V115.511H71.8005V117.763Z" fill="#29437D"/>
<path d="M97.2077 152.452H66.6382C64.1345 152.452 62.0957 150.414 62.0957 147.9V137.402C62.0957 134.887 64.1345 132.849 66.6382 132.849H72.838C73.4341 132.849 73.911 133.326 73.911 133.922C73.911 134.518 73.4341 134.994 72.838 134.994H66.6382C65.3148 134.994 64.2418 136.079 64.2418 137.402V147.9C64.2418 149.223 65.3148 150.295 66.6382 150.295H97.2077C97.8038 150.295 98.2807 150.784 98.2807 151.38C98.2807 151.963 97.8038 152.452 97.2077 152.452V152.452Z" fill="#29437D"/>
<path d="M104.767 133.255C104.767 135.709 101.691 137.699 99.2345 137.699H90.0541V147.483C90.0541 148.627 89.1241 149.544 87.9915 149.544H72.3133C68.4504 149.544 65.3267 146.422 65.3267 142.573V128.381C65.3267 127.32 66.197 126.45 67.2581 126.45H86.0362C87.6696 126.45 89.0645 127.427 89.6964 128.822H100.331C102.775 128.822 104.767 130.812 104.767 133.255V133.255Z" fill="black"/>
<path fill-rule="evenodd" clip-rule="evenodd" d="M107.449 134.673C106.042 137.497 103.348 139.511 100.236 140.083L95.3834 140.964C95.4072 141.417 95.4192 141.87 95.4192 142.323V149.604C95.4192 152.75 92.8558 155.312 89.6963 155.312H73.9704C71.5263 155.312 69.2253 154.251 67.6515 152.38L62.7751 146.613C60.4264 143.824 59.1268 140.273 59.1268 136.627V121.493C59.1268 120.349 58.1969 119.42 57.0642 119.42H54.167C53.5709 119.42 53.094 118.943 53.094 118.347C53.094 117.751 53.5709 117.275 54.167 117.275H57.0642C59.3891 117.275 61.2729 119.169 61.2729 121.493V136.627C61.2729 139.773 62.3936 142.823 64.4204 145.231L69.2968 150.998C70.4652 152.38 72.1582 153.167 73.9704 153.167H89.6963C91.6635 153.167 93.2731 151.57 93.2731 149.604V142.323C93.2731 140.261 92.987 138.224 92.4266 136.234L89.1479 124.627L58.1372 111.757C57.5888 111.531 57.3265 110.899 57.553 110.351C57.7796 109.803 58.4115 109.541 58.9599 109.767L105.339 129.024C106.388 129.465 107.223 130.323 107.616 131.384C108.021 132.456 107.95 133.648 107.449 134.673V134.673ZM105.601 132.134C105.41 131.622 105.029 131.217 104.516 131.014L91.6874 125.688L94.5011 135.65C94.7873 136.698 95.0138 137.747 95.1688 138.82L99.8544 137.962C102.298 137.521 104.409 135.936 105.518 133.707C105.768 133.219 105.792 132.659 105.601 132.134V132.134Z" fill="#29437D"/>
<path fill-rule="evenodd" clip-rule="evenodd" d="M129.041 143.967C129.041 147.828 125.75 150.879 121.887 150.593L90.066 148.222C87.8365 148.055 86.1196 146.208 86.1196 143.967C86.1196 141.727 87.8365 139.88 90.066 139.713L121.887 137.342C125.75 137.056 129.041 140.107 129.041 143.967V143.967ZM126.728 143.967C126.728 141.477 124.618 139.511 122.138 139.701L101.655 141.227C100.212 141.334 99.1033 142.526 99.1033 143.967C99.1033 145.409 100.212 146.601 101.655 146.708L122.138 148.234C124.618 148.424 126.728 146.458 126.728 143.967Z" fill="#29437D"/>
<path d="M71.3835 123.161L74.2688 124.472C74.8172 124.722 75.2464 125.187 75.4491 125.759L75.926 127.058C76.0214 127.32 76.0572 127.582 76.0572 127.856L75.9618 136.031C75.9499 136.973 75.3537 137.807 74.4715 138.128L72.8738 138.712C71.9916 139.034 71.002 138.772 70.394 138.057L65.0526 131.86C64.8738 131.658 64.7426 131.419 64.6473 131.157L64.1704 129.858C63.9677 129.286 63.9915 128.667 64.2538 128.119L65.613 125.259C65.8634 124.722 66.3284 124.305 66.8768 124.103L69.6786 123.09C70.227 122.887 70.847 122.911 71.3835 123.161V123.161Z" fill="black"/>
<path d="M75.5564 127.809C75.6518 128.047 75.5207 128.321 75.2822 128.405L65.7084 131.884C65.7243 131.908 65.7402 131.928 65.7561 131.944L66.543 132.861L74.7099 129.882C74.9603 129.799 75.2226 129.918 75.3061 130.168C75.4014 130.407 75.2703 130.681 75.0318 130.764L67.1987 133.612L68.0333 134.589L74.7815 132.123C75.0199 132.039 75.2941 132.17 75.3776 132.409C75.473 132.647 75.3418 132.921 75.1034 133.004L68.6771 135.34L69.5117 136.305L74.8292 134.375C75.0676 134.291 75.3418 134.41 75.4253 134.661C75.5207 134.899 75.3895 135.161 75.1511 135.257L70.1674 137.068L71.0855 138.14C71.3835 138.486 71.777 138.724 72.2062 138.843C71.5266 138.867 70.847 138.593 70.394 138.057L65.0526 131.86C64.8738 131.658 64.7426 131.419 64.6473 131.157L64.1704 129.858C63.9677 129.286 63.9915 128.667 64.2538 128.119L65.613 125.259C65.8634 124.722 66.3284 124.305 66.8768 124.103L69.6786 123.09C70.1197 122.935 70.5966 122.911 71.0497 123.042C70.8232 123.054 70.5966 123.09 70.3701 123.173L67.5802 124.186C67.0199 124.389 66.5668 124.806 66.3164 125.342L64.9573 128.202C64.838 128.452 64.7665 128.714 64.7426 128.977L74.233 125.533C74.4715 125.437 74.7457 125.569 74.8292 125.807C74.9126 126.045 74.7934 126.319 74.5549 126.403L64.8619 129.93C64.8698 129.93 64.8738 129.934 64.8738 129.942L65.2792 131.05L74.9603 127.535C75.1988 127.439 75.473 127.57 75.5564 127.809V127.809Z" fill="#29437D"/>
<path d="M87.6579 125.259L89.0171 128.119C89.2794 128.667 89.3032 129.286 89.1005 129.858L88.6236 131.157C88.5282 131.419 88.3852 131.658 88.2183 131.86L82.8769 138.057C82.2689 138.772 81.2793 139.034 80.397 138.712L78.7994 138.128C77.9171 137.807 77.321 136.973 77.3091 136.031L77.2137 127.856C77.2018 127.582 77.2495 127.32 77.3449 127.058L77.8218 125.759C78.0245 125.187 78.4537 124.722 79.0021 124.472L81.8874 123.161C82.4239 122.911 83.0319 122.887 83.5923 123.09L86.3941 124.103C86.9425 124.305 87.3956 124.722 87.6579 125.259V125.259Z" fill="black"/>
<path d="M87.8606 131.503C87.7771 131.741 87.5029 131.872 87.2645 131.777L77.6906 128.297C77.6906 128.321 77.6906 128.345 77.6906 128.369L77.7145 129.584L85.8814 132.552C86.1199 132.635 86.251 132.909 86.1557 133.147C86.0722 133.386 85.798 133.517 85.5595 133.433L77.7264 130.573L77.7383 131.86L84.4865 134.315C84.7369 134.399 84.8561 134.673 84.7726 134.911C84.6773 135.149 84.415 135.28 84.1765 135.185L77.7502 132.849L77.7622 134.136L83.0796 136.067C83.3181 136.15 83.4492 136.424 83.3538 136.663C83.2704 136.901 83.0081 137.032 82.7577 136.949L77.7741 135.125L77.7979 136.544C77.7979 137.008 77.941 137.437 78.1914 137.795C77.6549 137.378 77.321 136.734 77.3091 136.031L77.2137 127.856C77.2018 127.582 77.2495 127.32 77.3449 127.058L77.8218 125.759C78.0245 125.187 78.4537 124.722 79.0021 124.472L81.8874 123.161C82.4239 122.911 83.0319 122.887 83.5923 123.09L86.3941 124.103C86.8352 124.27 87.2048 124.568 87.4671 124.949C87.2883 124.806 87.0856 124.699 86.871 124.615L84.0811 123.602C83.5208 123.4 82.9127 123.424 82.3643 123.674L79.4909 124.985C79.2406 125.104 79.014 125.259 78.8233 125.449L88.3136 128.905C88.5521 128.989 88.6832 129.263 88.5879 129.501C88.5044 129.739 88.2302 129.87 87.9917 129.775L78.3106 126.26C78.3106 126.26 78.3106 126.264 78.3106 126.272L77.8933 127.38L87.5864 130.907C87.8248 130.991 87.956 131.265 87.8606 131.503V131.503Z" fill="#29437D"/>
<path d="M80.5757 144.611C80.5757 148.877 77.1062 152.333 72.8379 152.333C68.5696 152.333 65.1121 148.877 65.1121 144.611C65.1121 140.345 68.5696 136.877 72.8379 136.877C77.1062 136.877 80.5757 140.345 80.5757 144.611Z" fill="black"/>
<path d="M65.72 141.584C66.9003 138.82 69.6425 136.877 72.8378 136.877C76.033 136.877 78.7752 138.82 79.9555 141.584C78.2864 139.499 75.723 138.164 72.8378 138.164C69.9525 138.164 67.3891 139.499 65.72 141.584Z" fill="#4278EF"/>
<path d="M95.4192 144.611C95.4192 148.877 91.9616 152.333 87.6933 152.333C83.4131 152.333 79.9556 148.877 79.9556 144.611C79.9556 140.345 83.4131 136.877 87.6933 136.877C91.9616 136.877 95.4192 140.345 95.4192 144.611Z" fill="black"/>
<path d="M80.5757 141.584C81.7441 138.82 84.4863 136.877 87.6935 136.877C90.8887 136.877 93.6309 138.82 94.8112 141.584C93.1302 139.499 90.5668 138.164 87.6935 138.164C84.8082 138.164 82.2448 139.499 80.5757 141.584V141.584Z" fill="#4278EF"/>
<path d="M62.7869 95.8728H60.009C59.6394 95.8728 59.3413 95.5749 59.3413 95.2055C59.3413 94.8361 59.6394 94.5382 60.009 94.5382H62.7869V95.8728Z" fill="#29437D"/>
<path d="M61.4875 95.2055C61.4875 93.6087 62.0598 92.3098 62.7871 92.274V98.1488C62.0598 98.1131 61.4875 96.8142 61.4875 95.2055V95.2055Z" fill="#29437D"/>
<path d="M62.6917 92H63.2043V98.411H62.6917V92Z" fill="#29437D"/>
<path d="M61 107H60V95H61V107Z" fill="#29437D"/>
<path d="M52.5337 113.747V102.451C56.6112 102.522 59.9018 105.025 59.9018 108.099C59.9018 111.185 56.6112 113.676 52.5337 113.747Z" fill="#29437D"/>
<path d="M53.0344 114.26H50.1372V101.938H53.0344V114.26Z" fill="#29437D"/>
<path d="M114.603 129.715C111.276 131.36 107.664 132.313 103.968 132.313C103.002 132.313 102.442 131.217 103.014 130.442C107.282 124.699 114.126 120.969 121.84 120.969C130.352 120.969 137.816 125.521 141.917 132.313H139.712C136.004 132.313 132.391 131.36 129.077 129.715C126.895 128.643 124.439 128.035 121.84 128.035C119.241 128.035 116.785 128.643 114.603 129.715V129.715Z" fill="black"/>
<path d="M123.557 122.256C121.601 122.256 119.694 122.506 117.881 122.959C117.035 123.173 116.224 122.518 116.224 121.648C118.024 121.207 119.896 120.969 121.84 120.969C127.491 120.969 132.677 122.971 136.731 126.319C132.975 123.757 128.445 122.256 123.557 122.256Z" fill="#A9C4FF"/>
<path d="M133.834 128.822C133.834 127.94 134.776 127.213 135.956 127.201V130.454C134.776 130.43 133.834 129.715 133.834 128.822Z" fill="black"/>
<path d="M135.813 127.058H136.648V130.597H135.813V127.058Z" fill="black"/>
<path d="M58.4235 142.156L58.3877 142.18C56.4563 143.074 54.2029 141.977 53.6306 139.928C51.8661 133.707 46.1551 129.143 39.3593 129.143C38.0597 129.143 36.7959 129.322 35.5917 129.632C33.541 130.168 31.4546 128.834 31.2519 126.736C31.244 126.705 31.24 126.673 31.24 126.641C33.708 125.485 36.4621 124.83 39.3593 124.83C49.3265 124.83 57.5054 132.444 58.4235 142.156V142.156Z" fill="#5388FF"/>
<path d="M39.3596 144.611C39.2523 144.611 39.1449 144.587 39.0376 144.528C38.7396 144.349 38.6323 143.956 38.8111 143.646L61.9886 103.511C62.8828 101.974 64.3135 100.866 66.0423 100.401C67.7711 99.9482 69.5714 100.175 71.1094 101.068L79.8963 106.145C80.2063 106.324 80.3136 106.717 80.1348 107.027C79.9559 107.336 79.5625 107.444 79.2525 107.265L70.4656 102.189C69.2256 101.474 67.7711 101.283 66.3761 101.652C64.9812 102.022 63.8247 102.915 63.1093 104.167L39.9199 144.289C39.8007 144.492 39.5861 144.611 39.3596 144.611V144.611Z" fill="#D1D3D4"/>
<path d="M39.3593 144.182C39.3276 144.182 39.2918 144.174 39.252 144.158C39.1567 144.099 39.1209 143.967 39.1805 143.86L62.358 103.726C63.1926 102.284 64.5398 101.247 66.1494 100.818C67.7709 100.389 69.4519 100.616 70.8946 101.45L79.6815 106.514C79.7888 106.574 79.8246 106.705 79.765 106.812C79.7054 106.907 79.5742 106.943 79.4669 106.884L70.68 101.819C69.3327 101.045 67.7709 100.83 66.2686 101.235C64.7664 101.64 63.5145 102.606 62.7276 103.952L39.5501 144.075C39.5143 144.146 39.4428 144.182 39.3593 144.182V144.182Z" fill="#D1D3D4"/>
<path d="M78.6802 107.694L73.5892 104.751C73.017 104.417 72.8262 103.69 73.1481 103.118C73.4819 102.534 74.2211 102.343 74.7934 102.677L79.8844 105.608C80.4567 105.942 80.6593 106.681 80.3255 107.253C79.9917 107.825 79.2525 108.028 78.6802 107.694Z" fill="#4278EF"/>
<path d="M80.3255 107.241C80.3255 107.241 80.3255 107.245 80.3255 107.253C79.9917 107.825 79.2525 108.028 78.6802 107.694L73.5892 104.751C73.017 104.417 72.8262 103.69 73.1481 103.118C73.1561 103.11 73.16 103.106 73.16 103.106L80.3255 107.241Z" fill="black"/>
<path d="M39.3593 145.254C39.1447 145.254 38.9181 145.207 38.7154 145.088C38.1074 144.73 37.8928 143.944 38.2505 143.324L60.9511 104.012C61.3087 103.392 62.1076 103.178 62.7156 103.535C63.3356 103.893 63.5502 104.679 63.1925 105.299L40.48 144.611C40.2415 145.028 39.8123 145.254 39.3593 145.254Z" fill="#29437D"/>
<path d="M53.4756 122.113L51.2461 120.826L60.9511 104.012L63.1925 105.299L53.4756 122.113Z" fill="#29437D"/>
<path d="M104.063 128.738C104.063 128.738 89.7681 124.067 89.7681 121.624C89.7681 120.945 90.388 120.444 91.0438 120.599L101.345 122.911C103.384 123.364 105.518 123.09 107.39 122.137L113.172 119.181C113.899 118.812 114.758 119.336 114.758 120.147V121.338C114.758 123.328 105.971 129.632 104.063 128.738Z" fill="#5388FF"/>
<path d="M113.327 119.11C114.209 118.812 114.698 120.135 113.875 120.564L109.106 123.006C107.246 123.96 105.1 124.222 103.062 123.769L92.9155 121.016L101.345 122.911C103.384 123.364 105.518 123.09 107.39 122.137L113.172 119.181C113.22 119.15 113.271 119.126 113.327 119.11V119.11Z" fill="#A9C4FF"/>
<path d="M88.4565 123.769H70.3342C66.0182 123.769 62.5129 120.099 62.5129 115.571V113.295C62.5129 106.8 77.7738 107.897 89.7441 122.423C89.7441 123.173 89.1718 123.769 88.4565 123.769Z" fill="black"/>
<path d="M87.3119 122.172H70.4534C66.4236 122.172 63.1687 118.919 63.1687 114.891V112.866C63.1687 107.11 77.3804 108.075 88.5161 120.969C88.5161 121.636 87.9796 122.172 87.3119 122.172Z" fill="#5388FF"/>
<path opacity="0.5" d="M65.3267 120.063C63.9914 118.752 63.1687 116.917 63.1687 114.891V112.866C63.1687 107.11 77.3804 108.075 88.5161 120.969C88.5161 121.064 88.5042 121.155 88.4803 121.243C77.5712 109.732 64.4563 109.052 64.4563 114.593V116.619C64.4563 117.871 64.7783 119.038 65.3267 120.063V120.063Z" fill="white"/>
<path d="M141.334 82.4941C141.44 83.0728 141.497 83.6593 141.506 84.2475C141.506 84.2475 152.186 82.3839 154.531 83.293C156.876 84.2021 154.997 85.4651 154.997 85.4651C154.997 85.4651 145.83 90.3143 140.795 88.9835C139.416 88.6189 138.522 87.1798 137.952 85.2814C138.827 84.1789 140.096 83.1934 141.334 82.4941Z" fill="#F9E0D2"/>
<path d="M137.05 74.4613C137.072 73.9023 137.097 73.4158 137.121 73.0261C137.121 72.9613 137.129 72.8984 137.132 72.8394C137.167 72.3026 137.196 71.9932 137.196 71.9932L137.74 72.2968L138.827 72.9032C138.827 72.9032 140.053 76.733 140.847 80.1141C140.866 80.1924 140.884 80.2707 140.901 80.3491C140.974 80.6614 141.042 80.969 141.103 81.2688C141.222 81.8413 141.322 82.3839 141.394 82.8723C140.749 83.439 140.012 83.9729 139.266 84.5164C138.828 84.8326 138.395 85.1141 137.98 85.3636C137.096 82.4903 136.967 78.5318 137.019 75.6682C137.024 75.2369 137.036 74.8336 137.05 74.4613Z" fill="#F6A19E"/>
<path d="M137.106 73.088L137.196 71.9932C137.025 71.6522 136.909 71.2868 136.85 70.91C136.781 70.4709 136.623 69.4497 137.237 68.7949C137.668 68.3365 138.416 68.1237 138.627 68.3462C138.851 68.5831 138.251 69.0889 138.324 70.0251C138.369 70.615 138.632 70.7369 138.79 71.4864C138.886 71.9527 138.899 72.4325 138.827 72.9032C138.292 72.97 137.641 73.0261 137.106 73.088Z" fill="#F6A19E"/>
<path d="M148.549 104.035C148.18 103.943 147.854 103.726 147.626 103.421C147.399 103.116 147.285 102.741 147.303 102.361C147.517 97.8721 148.146 93.413 149.183 89.0405C149.666 86.9893 150.222 85.0608 150.811 83.261C150.835 83.1884 150.878 83.1233 150.935 83.0724C150.992 83.0215 151.061 82.9864 151.136 82.9709L158.078 81.4796L163.619 83.6885C164.442 90.4922 164.478 97.368 163.725 104.18C163.709 104.325 163.645 104.461 163.544 104.566C163.442 104.671 163.309 104.739 163.164 104.76C158.292 105.48 153.326 105.234 148.549 104.035V104.035Z" fill="#F9E0D2"/>
<path d="M174.841 158.962L174.958 159.246L174.167 159.919L173.327 159.62L173.017 159.246L172.927 158.952L174.841 158.962Z" fill="#F6A19E"/>
<path d="M148.608 158.863L148.653 159.249L148.291 159.919L147.227 159.807L146.91 159.587L146.815 159.249L146.817 158.759L148.608 158.863Z" fill="#F6A19E"/>
<path d="M163.141 99.4742C163.141 99.4742 167.634 105.181 175.248 158.952L172.972 158.94L155.036 109.474V99.4742H163.141Z" fill="#28333F"/>
<path d="M149.777 96.4762C149.777 96.4762 144.47 100.702 144.494 112.052C144.506 117.134 146.879 158.861 146.879 158.861L148.622 158.952C151.713 143.065 153.95 127.452 156.504 111.291C156.867 111.238 158.742 111.1 159.066 110.714C159.778 109.867 159.084 108.391 159.099 107.742C159.158 105.143 159.175 99.2005 159.009 97.0102C156.954 97.183 151.706 96.6667 149.777 96.4762Z" fill="#28333F"/>
<path d="M146.859 158.856C146.859 158.856 144.506 117.128 144.494 112.049C144.469 100.702 149.733 96.4762 149.733 96.4762C150.177 96.5292 150.63 96.5784 151.089 96.6233L152.328 97.4324C152.328 97.4324 148.604 119.668 148.695 132.964C148.744 140.352 148.738 150.599 148.723 158.247C148.678 158.482 148.633 158.717 148.588 158.952L146.859 158.856Z" fill="#28333F"/>
<path d="M148.555 159.339C148.555 159.339 149.428 160.098 148.555 160.886H144.784V159.339H146.746C146.746 159.339 147.645 159.815 148.555 159.339Z" fill="#2E3192"/>
<path d="M146.235 160.886H143.237V160.669C143.237 160.317 143.394 159.978 143.675 159.729C143.956 159.479 144.336 159.339 144.733 159.339V159.339C145.13 159.339 145.511 159.479 145.791 159.729C146.072 159.978 146.23 160.317 146.23 160.669L146.235 160.886Z" fill="#2E3192"/>
<path d="M173.202 159.339C173.202 159.339 172.366 160.098 173.202 160.886H177.473L177.319 159.339H174.937C174.937 159.339 174.074 159.815 173.202 159.339Z" fill="#2E3192"/>
<path d="M177.473 159.339C177.858 159.339 178.227 159.479 178.499 159.729C178.771 159.978 178.924 160.317 178.924 160.669V160.886H177.473V159.339Z" fill="#2E3192"/>
<path d="M145.178 104.252C145.06 99.9717 146.044 94.8159 147.438 89.3566C147.99 87.1919 148.878 85.0129 149.576 83.1178L157.759 81.3886L164.708 83.3451C165.977 90.1083 166.273 96.9794 165.592 103.822C165.578 103.969 165.504 104.108 165.382 104.219C165.26 104.329 165.097 104.404 164.918 104.433C162.162 104.864 159.368 105.095 156.569 105.121C152.004 105.159 148.131 104.826 145.178 104.252Z" fill="#F9E0D2"/>
<path d="M163.164 104.76C163.309 104.739 163.442 104.67 163.544 104.565C163.646 104.461 163.71 104.325 163.726 104.18C164.478 97.3679 164.442 90.4922 163.619 83.6885L158.078 81.4796L157.1 81.6895C158.111 84.2645 158.819 86.9487 159.209 89.6875C160.095 95.9332 159.155 101.309 157.998 105.161C159.727 105.147 161.454 105.013 163.164 104.76V104.76Z" fill="#F9E0D2"/>
<path d="M160.462 77.9893L159.913 82.3162L156.369 82.8714L157.124 77.3114L160.462 77.9893Z" fill="#F6A19E"/>
<path d="M157.124 77.3114L160.462 77.9884L160.423 78.293C160.064 79.7379 158.611 81.0706 157.232 80.764C157.038 80.7195 156.852 80.6447 156.681 80.5425L157.124 77.3114Z" fill="#F26D6D"/>
<path d="M158.031 73.8965C156.925 74.176 156.443 75.1673 156.29 75.4874C155.651 76.8027 155.66 79.0222 157.004 79.7147C158.267 80.3646 160.113 79.3626 160.789 77.9593C161.273 76.9458 161.31 75.3984 160.319 74.4903C160.015 74.2124 159.647 74.0131 159.249 73.9096C158.85 73.8061 158.432 73.8016 158.031 73.8965V73.8965Z" fill="#F6A19E"/>
<path d="M160.142 77.4564C160.209 77.3374 160.903 76.0589 160.397 75.0676C160.301 74.8742 159.967 74.2349 159.416 74.1537C159.243 74.1285 159.139 74.1721 157.828 74.6372C157.608 74.7287 157.37 74.7655 157.132 74.7446C156.308 74.6546 155.843 73.7204 155.825 73.6808C155.468 72.938 155.568 71.9158 156.129 71.3838C157.032 70.5279 158.81 71.2465 159.697 71.8964C159.697 71.8964 161.653 73.3297 161.335 76.1517C161.315 76.3862 161.239 76.6125 161.113 76.8113C160.822 77.2562 160.339 77.4071 160.142 77.4564Z" fill="#2E3192"/>
<path d="M161.498 77.8616C161.559 77.7351 161.58 77.5935 161.56 77.4547C161.54 77.3159 161.48 77.1862 161.386 77.0818C161.292 76.9775 161.17 76.9033 161.034 76.8687C160.898 76.834 160.755 76.8404 160.623 76.8871C160.49 76.9338 160.375 77.0187 160.291 77.131C160.207 77.2433 160.158 77.378 160.151 77.518C160.143 77.6581 160.177 77.7972 160.249 77.9177C160.321 78.0383 160.427 78.1349 160.553 78.1953C160.723 78.2763 160.917 78.2866 161.095 78.224C161.272 78.1615 161.417 78.0311 161.498 77.8616Z" fill="#F6A19E"/>
<path d="M155.4 82.1537C155.636 81.9332 155.9 81.6865 156.205 81.7146C156.411 81.7339 156.454 81.8587 156.779 82.0405C157.007 82.1674 157.253 82.2553 157.51 82.3007C157.537 82.595 157.479 82.891 157.342 83.1528C157.204 83.4147 156.994 83.631 156.736 83.7755C156.077 83.5326 155.493 83.1203 155.044 82.5802C155.146 82.4245 155.265 82.2813 155.4 82.1537V82.1537Z" fill="#FFB195"/>
<path d="M160.289 82.1382C160.175 81.9966 160.037 81.8753 159.883 81.7794C159.736 81.7817 159.589 81.7921 159.443 81.8104C159.265 81.8312 159.088 81.8635 158.915 81.9071C158.343 82.0483 157.637 82.2591 157.51 82.2939C157.566 82.5643 157.651 82.8279 157.763 83.0802C157.861 83.3022 157.98 83.5145 158.118 83.7146C158.839 83.1707 159.682 82.812 160.574 82.6701C160.514 82.4764 160.417 82.2959 160.289 82.1382V82.1382Z" fill="#FFB195"/>
<path d="M172.329 81.615C172.319 82.2033 172.358 82.7914 172.446 83.3732C172.446 83.3732 161.605 83.2823 159.441 84.5628C157.277 85.8432 159.337 86.7871 159.337 86.7871C159.337 86.7871 169.174 90.0753 173.923 87.9341C175.223 87.3481 175.869 85.7823 176.122 83.8161C175.077 82.8674 173.664 82.1024 172.329 81.615Z" fill="#F9E0D2"/>
<path d="M175.24 72.9893C175.128 72.4419 175.023 71.9661 174.935 71.585C174.921 71.5212 174.907 71.4603 174.894 71.4022C174.772 70.88 174.692 70.5782 174.692 70.5782L174.209 70.9651L173.236 71.7388C173.236 71.7388 172.656 75.7185 172.423 79.1856C172.417 79.2659 172.412 79.3461 172.407 79.4264C172.388 79.7465 172.37 80.0608 172.359 80.3665C172.335 80.9467 172.325 81.5019 172.336 81.996C173.065 82.4496 173.883 82.8548 174.706 83.2668C175.19 83.5077 175.66 83.7146 176.112 83.8926C176.515 80.9138 175.993 76.9873 175.473 74.1701C175.393 73.7504 175.314 73.3539 175.24 72.9893Z" fill="#F6A19E"/>
<path d="M174.959 71.643L174.692 70.5792C174.805 70.215 174.86 69.8356 174.857 69.4544C174.852 69.0096 174.842 67.9767 174.129 67.4312C173.629 67.0444 172.856 66.9612 172.685 67.2156C172.501 67.4864 173.176 67.8867 173.258 68.8229C173.309 69.4119 173.07 69.5753 173.037 70.3403C173.017 70.8159 173.082 71.2912 173.23 71.7436C173.771 71.7214 174.422 71.6653 174.959 71.643Z" fill="#F6A19E"/>
<path d="M165.898 68.6006L167.186 70.3259L168.08 70.4555L169.805 69.1693L171.092 70.8936L171.254 70.9178L172.979 69.6306L174.216 71.2853L175.917 70.0165L177.217 71.7573L181.305 68.3878L180.357 64.5155L150.262 60.1383C149.896 62.6605 149.529 65.1831 149.161 67.706L164.176 69.8907L165.898 68.6006Z" fill="#FDC854"/>
<path d="M156.937 62.9422L156.795 63.9183L179.093 67.1633L179.235 66.1871L156.937 62.9422Z" fill="#F89F4F"/>
<path d="M147.145 54.6992L134.806 52.9477C133.578 52.7736 132.332 53.0941 131.341 53.8388C130.35 54.5835 129.695 55.6914 129.521 56.9187L128.383 64.94C128.209 66.1665 128.528 67.4119 129.272 68.4028C130.015 69.3936 131.122 70.0488 132.348 70.2243L144.689 71.9758C145.916 72.1499 147.162 71.8294 148.153 71.0847C149.144 70.34 149.799 69.2321 149.973 68.0048L151.111 59.9835C151.285 58.7569 150.965 57.5113 150.222 56.5205C149.478 55.5296 148.371 54.8745 147.145 54.6992V54.6992ZM132.735 63.6692C132.688 63.9503 132.534 64.202 132.304 64.3705C132.074 64.539 131.787 64.6109 131.505 64.5709C131.223 64.5308 130.968 64.382 130.794 64.1562C130.62 63.9304 130.542 63.6456 130.575 63.3626L131.189 59.0435C131.235 58.7624 131.39 58.5107 131.62 58.3422C131.849 58.1737 132.136 58.1018 132.418 58.1418C132.7 58.1819 132.955 58.3307 133.129 58.5565C133.303 58.7823 133.382 59.0671 133.348 59.3501L132.735 63.6692Z" fill="#653087"/>
<path d="M137.659 60.0367C138.499 59.8502 139.028 59.018 138.842 58.178C138.655 57.338 137.823 56.8082 136.983 56.9948C136.143 57.1813 135.613 58.0135 135.8 58.8535C135.986 59.6935 136.819 60.2233 137.659 60.0367Z" fill="#46B283"/>
<path d="M137.259 66.8137C137.946 66.2968 138.085 65.3201 137.568 64.6322C137.051 63.9443 136.075 63.8056 135.387 64.3225C134.699 64.8394 134.56 65.8161 135.077 66.504C135.594 67.192 136.571 67.3306 137.259 66.8137Z" fill="#F26D6D"/>
<path d="M138.683 72.0222C139.834 71.1392 140.017 70.8055 139.948 70.6682C139.851 70.4825 139.169 70.467 138.787 70.9051C138.657 71.0582 138.578 71.2474 138.559 71.4472C138.54 71.647 138.583 71.8477 138.683 72.0222V72.0222Z" fill="#F6A19E"/>
<path d="M173.23 70.851C171.95 70.1672 171.715 69.8693 171.761 69.7252C171.826 69.5318 172.496 69.3993 172.941 69.7697C173.094 69.8988 173.204 70.0716 173.255 70.2649C173.307 70.4583 173.298 70.6628 173.23 70.851V70.851Z" fill="#F6A19E"/>
<path d="M163.468 83.6276C163.468 83.6276 162.814 85.5705 164.079 88.6566L159.45 88.4999L158.452 85.8703L158.161 84.0647L158.465 83.6092L158.868 83.2804L159.401 83.028L160.332 82.8055L161.364 82.9177L163.468 83.6276Z" fill="#F9E0D2"/>
<path d="M158.206 78.1518L157.852 78.6354C157.803 78.7022 157.736 78.7546 157.66 78.7869C157.583 78.8192 157.499 78.8304 157.417 78.8191C157.172 78.7917 156.939 78.7016 156.74 78.5576C156.54 78.4136 156.381 78.2205 156.279 77.9971L158.206 78.1518Z" fill="#EFEEFE"/>
<path d="M141.802 83.5434C141.808 83.5144 141.918 83.0531 141.674 82.8249C140.933 82.1285 137.403 84.0705 137.509 85.4042C137.513 85.4622 137.548 85.8181 137.763 85.9119C138.036 86.0318 138.422 85.6459 138.735 85.3839C140.228 84.1343 141.58 84.438 141.802 83.5434Z" fill="#FFB195"/>
<path d="M172.128 82.6005C172.12 82.5724 171.991 82.1169 172.224 81.8771C172.936 81.1498 176.544 82.9409 176.495 84.2784C176.495 84.3365 176.473 84.6933 176.263 84.7968C175.995 84.9274 175.594 84.5589 175.269 84.3132C173.725 83.1276 172.387 83.4835 172.128 82.6005Z" fill="#FFB195"/>
<path d="M156.265 158.243H134.957C134.624 158.243 134.354 158.513 134.354 158.846V160.877C134.354 161.21 134.624 161.479 134.957 161.479H156.265C156.598 161.479 156.868 161.21 156.868 160.877V158.846C156.868 158.513 156.598 158.243 156.265 158.243Z" fill="#FDC854"/>
<path d="M134.969 161.479H156.252C156.415 161.479 156.571 161.415 156.687 161.299C156.802 161.184 156.867 161.027 156.868 160.864V160.496H134.354V160.865C134.354 161.028 134.419 161.184 134.535 161.299C134.65 161.415 134.806 161.479 134.969 161.479V161.479Z" fill="#F89F4F"/>
<path d="M156.265 155.006H134.957C134.624 155.006 134.354 155.276 134.354 155.609V157.64C134.354 157.973 134.624 158.242 134.957 158.242H156.265C156.598 158.242 156.868 157.973 156.868 157.64V155.609C156.868 155.276 156.598 155.006 156.265 155.006Z" fill="#FDC854"/>
<path d="M134.969 158.243H156.252C156.415 158.243 156.572 158.178 156.687 158.063C156.803 157.947 156.868 157.791 156.868 157.627V157.258H134.354V157.627C134.354 157.79 134.419 157.947 134.534 158.063C134.649 158.178 134.806 158.243 134.969 158.243V158.243Z" fill="#F89F4F"/>
<path d="M156.265 151.77H134.957C134.624 151.77 134.354 152.04 134.354 152.373V154.404C134.354 154.737 134.624 155.006 134.957 155.006H156.265C156.598 155.006 156.868 154.737 156.868 154.404V152.373C156.868 152.04 156.598 151.77 156.265 151.77Z" fill="#FDC854"/>
<path d="M134.969 155.006H156.252C156.415 155.006 156.571 154.942 156.687 154.826C156.802 154.711 156.867 154.554 156.868 154.391V154.022H134.354V154.391C134.354 154.472 134.37 154.552 134.401 154.627C134.432 154.701 134.477 154.769 134.534 154.826C134.591 154.883 134.659 154.929 134.734 154.96C134.808 154.99 134.888 155.006 134.969 155.006Z" fill="#F89F4F"/>
<path d="M154.998 148.534H133.69C133.357 148.534 133.087 148.804 133.087 149.137V151.168C133.087 151.501 133.357 151.77 133.69 151.77H154.998C155.331 151.77 155.601 151.501 155.601 151.168V149.137C155.601 148.804 155.331 148.534 154.998 148.534Z" fill="#FDC854"/>
<path d="M133.703 151.77H154.986C155.066 151.77 155.146 151.754 155.221 151.724C155.296 151.693 155.363 151.647 155.421 151.59C155.478 151.533 155.523 151.465 155.554 151.391C155.585 151.316 155.601 151.236 155.601 151.155V150.786H133.087V151.155C133.087 151.318 133.152 151.475 133.268 151.59C133.383 151.706 133.54 151.77 133.703 151.77Z" fill="#F89F4F"/>
<path d="M156.265 145.439H134.957C134.624 145.439 134.354 145.708 134.354 146.041V148.072C134.354 148.405 134.624 148.675 134.957 148.675H156.265C156.598 148.675 156.868 148.405 156.868 148.072V146.041C156.868 145.708 156.598 145.439 156.265 145.439Z" fill="#FDC854"/>
<path d="M134.969 148.675H156.252C156.415 148.675 156.571 148.61 156.687 148.494C156.802 148.379 156.867 148.223 156.868 148.059V147.69H134.354V148.059C134.354 148.14 134.37 148.22 134.401 148.295C134.432 148.369 134.477 148.437 134.534 148.494C134.591 148.552 134.659 148.597 134.734 148.628C134.808 148.659 134.888 148.675 134.969 148.675Z" fill="#F89F4F"/>
<path d="M155.421 142.203H134.112C133.78 142.203 133.51 142.472 133.51 142.805V144.836C133.51 145.169 133.78 145.439 134.112 145.439H155.421C155.754 145.439 156.023 145.169 156.023 144.836V142.805C156.023 142.472 155.754 142.203 155.421 142.203Z" fill="#FDC854"/>
<path d="M134.125 145.439H155.407C155.571 145.439 155.727 145.374 155.843 145.258C155.958 145.143 156.023 144.986 156.023 144.823V144.454H133.51V144.823C133.51 144.986 133.575 145.142 133.69 145.258C133.805 145.373 133.962 145.438 134.125 145.439V145.439Z" fill="#F89F4F"/>
<path d="M154.998 138.966H133.69C133.357 138.966 133.087 139.235 133.087 139.568V141.599C133.087 141.932 133.357 142.202 133.69 142.202H154.998C155.331 142.202 155.601 141.932 155.601 141.599V139.568C155.601 139.235 155.331 138.966 154.998 138.966Z" fill="#FDC854"/>
<path d="M133.703 142.203H154.986C155.149 142.202 155.305 142.137 155.421 142.022C155.536 141.906 155.601 141.75 155.601 141.587V141.217H133.087V141.587C133.087 141.75 133.152 141.907 133.268 142.022C133.383 142.138 133.54 142.203 133.703 142.203Z" fill="#F89F4F"/>
<path d="M136.311 158.199C140.68 153.83 140.68 146.746 136.311 142.377C131.942 138.008 124.859 138.008 120.49 142.377C116.121 146.746 116.121 153.83 120.49 158.199C124.859 162.568 131.942 162.568 136.311 158.199Z" fill="#FDC854"/>
<path d="M134.73 156.617C138.225 153.122 138.225 147.454 134.73 143.959C131.234 140.463 125.567 140.463 122.072 143.959C118.576 147.454 118.576 153.122 122.072 156.617C125.567 160.113 131.234 160.113 134.73 156.617Z" fill="#F89F4F"/>
<path d="M139.137 149.969L135.727 145.111L124.622 158.748L130.708 160.32L139.137 149.969Z" fill="#FDC854"/>
<path d="M134.916 144.126L133.296 142.808L122.193 156.447L123.812 157.765L134.916 144.126Z" fill="#FDC854"/>
<path d="M128.403 159.264C126.179 159.27 124.031 158.453 122.374 156.969C120.718 155.485 119.67 153.439 119.433 151.228C119.196 149.016 119.786 146.795 121.091 144.994C122.396 143.192 124.321 141.938 126.497 141.474C128.672 141.009 130.942 141.367 132.869 142.478C134.796 143.589 136.242 145.375 136.93 147.49C137.617 149.606 137.496 151.901 136.59 153.932C135.684 155.963 134.058 157.587 132.025 158.49C130.885 158.997 129.651 159.261 128.403 159.264V159.264ZM128.408 142.933C127.068 142.931 125.754 143.296 124.606 143.987C123.458 144.678 122.521 145.669 121.896 146.854C121.27 148.039 120.98 149.372 121.057 150.709C121.133 152.046 121.573 153.338 122.33 154.443C123.087 155.549 124.131 156.427 125.35 156.982C126.569 157.538 127.917 157.75 129.247 157.596C130.578 157.441 131.842 156.927 132.901 156.107C133.961 155.287 134.777 154.194 135.26 152.944V152.944C135.691 151.83 135.845 150.628 135.707 149.442C135.569 148.255 135.145 147.12 134.47 146.134C133.796 145.149 132.891 144.342 131.835 143.784C130.779 143.227 129.603 142.934 128.408 142.933Z" fill="#F89F4F"/>
<path d="M104.675 62.4565L80.5029 69.5203L83.9777 81.4108L108.15 74.347L104.675 62.4565Z" fill="#1A897E"/>
<path d="M106.796 63.4192L81.8655 67.7003L83.9714 79.9643L108.902 75.6832L106.796 63.4192Z" fill="#46B283"/>
<path d="M105.212 72.4728L104.445 67.8973C104.194 67.9398 103.938 67.9324 103.69 67.8755C103.441 67.8185 103.207 67.7132 103 67.5655C102.793 67.4177 102.616 67.2306 102.482 67.0147C102.347 66.7988 102.256 66.5584 102.214 66.3074L85.0209 69.1904C85.0632 69.4412 85.0557 69.698 84.9987 69.9459C84.9417 70.1939 84.8363 70.4282 84.6886 70.6353C84.5409 70.8425 84.3538 71.0185 84.138 71.1532C83.9222 71.288 83.6819 71.3788 83.4309 71.4205L84.1978 75.996C84.4487 75.9536 84.7055 75.9611 84.9534 76.0181C85.2014 76.0752 85.4356 76.1805 85.6428 76.3282C85.85 76.4759 86.026 76.663 86.1607 76.8788C86.2954 77.0947 86.3863 77.3349 86.428 77.5859L103.622 74.7039C103.58 74.453 103.587 74.1961 103.644 73.948C103.701 73.7 103.807 73.4656 103.954 73.2583C104.102 73.051 104.289 72.875 104.505 72.7402C104.721 72.6054 104.961 72.5145 105.212 72.4728Z" fill="#1A897E"/>
<path d="M97.411 73.3968C98.2123 71.6901 97.4783 69.657 95.7716 68.8557C94.0649 68.0544 92.0317 68.7883 91.2304 70.4951C90.4291 72.2018 91.1631 74.2349 92.8698 75.0362C94.5765 75.8375 96.6097 75.1035 97.411 73.3968Z" fill="#46B283"/>
</svg>
