<svg width="65" height="37" viewBox="0 0 65 37" fill="none" xmlns="http://www.w3.org/2000/svg">
<path d="M63.7127 33.0453H61.5093L61.1307 34.1206H60.2296L62.115 28.8505H63.1145L65 34.1206H64.0913L63.7127 33.0453ZM63.4704 32.3412L62.6148 29.8954L61.7516 32.3412H63.4704Z" fill="#4D4D4D"/>
<path d="M57.4324 29.5547V31.0993H59.2497V31.8035H57.4324V33.4164H59.4769V34.1206H56.5692V28.8505H59.4769V29.5547H57.4324Z" fill="#4D4D4D"/>
<path d="M53.7334 34.1736C53.38 34.1736 53.062 34.113 52.7793 33.9919C52.4966 33.8657 52.2745 33.689 52.113 33.4618C51.9514 33.2347 51.8707 32.9697 51.8707 32.6668H52.7944C52.8146 32.8939 52.903 33.0807 53.0595 33.2271C53.221 33.3735 53.4456 33.4467 53.7334 33.4467C54.0312 33.4467 54.2634 33.376 54.43 33.2347C54.5966 33.0883 54.6799 32.9015 54.6799 32.6743C54.6799 32.4977 54.6269 32.3538 54.5209 32.2427C54.4199 32.1317 54.2912 32.0459 54.1347 31.9853C53.9833 31.9247 53.7712 31.8591 53.4986 31.7884C53.1554 31.6976 52.8752 31.6067 52.6582 31.5158C52.4461 31.4199 52.2644 31.2735 52.113 31.0767C51.9615 30.8798 51.8858 30.6173 51.8858 30.2892C51.8858 29.9863 51.9615 29.7213 52.113 29.4941C52.2644 29.267 52.4764 29.0928 52.749 28.9716C53.0216 28.8505 53.3371 28.7899 53.6955 28.7899C54.2054 28.7899 54.6218 28.9186 54.9449 29.1761C55.273 29.4285 55.4547 29.7768 55.4901 30.221H54.536C54.5209 30.0292 54.43 29.8651 54.2634 29.7288C54.0968 29.5925 53.8772 29.5244 53.6047 29.5244C53.3573 29.5244 53.1554 29.5875 52.9989 29.7137C52.8424 29.8399 52.7642 30.0216 52.7642 30.2589C52.7642 30.4204 52.8121 30.5542 52.908 30.6602C53.009 30.7612 53.1352 30.8419 53.2866 30.9025C53.4381 30.9631 53.645 31.0287 53.9075 31.0994C54.2558 31.1953 54.5385 31.2912 54.7556 31.3871C54.9777 31.483 55.1645 31.6319 55.3159 31.8339C55.4724 32.0307 55.5507 32.2957 55.5507 32.6289C55.5507 32.8965 55.4775 33.1489 55.3311 33.3861C55.1897 33.6234 54.9802 33.8152 54.7026 33.9616C54.43 34.1029 54.1069 34.1736 53.7334 34.1736Z" fill="#4D4D4D"/>
<path d="M47.0135 34.1887C46.6198 34.1887 46.2639 34.1004 45.9459 33.9237C45.6278 33.742 45.378 33.4896 45.1962 33.1665C45.0145 32.8384 44.9236 32.4598 44.9236 32.0307C44.9236 31.6067 45.017 31.2306 45.2038 30.9025C45.3906 30.5743 45.6455 30.3219 45.9686 30.1453C46.2917 29.9686 46.6526 29.8802 47.0514 29.8802C47.4502 29.8802 47.8111 29.9686 48.1342 30.1453C48.4572 30.3219 48.7122 30.5743 48.8989 30.9025C49.0857 31.2306 49.1791 31.6067 49.1791 32.0307C49.1791 32.4547 49.0832 32.8308 48.8914 33.1589C48.6995 33.487 48.437 33.742 48.1039 33.9237C47.7758 34.1004 47.4123 34.1887 47.0135 34.1887ZM47.0135 33.4391C47.2356 33.4391 47.4426 33.3861 47.6344 33.2801C47.8313 33.1741 47.9903 33.0151 48.1115 32.803C48.2326 32.591 48.2932 32.3336 48.2932 32.0307C48.2932 31.7278 48.2351 31.4729 48.119 31.2659C48.0029 31.0539 47.849 30.8949 47.6571 30.7889C47.4653 30.6829 47.2583 30.6299 47.0362 30.6299C46.8141 30.6299 46.6072 30.6829 46.4153 30.7889C46.2286 30.8949 46.0796 31.0539 45.9686 31.2659C45.8575 31.4729 45.802 31.7278 45.802 32.0307C45.802 32.48 45.9156 32.8283 46.1427 33.0756C46.3749 33.3179 46.6652 33.4391 47.0135 33.4391Z" fill="#4D4D4D"/>
<path d="M42.4445 29.8803C42.7625 29.8803 43.0452 29.9484 43.2925 30.0847C43.5449 30.221 43.7418 30.4229 43.8831 30.6905C44.0295 30.958 44.1027 31.2811 44.1027 31.6597V34.1206H43.2471V31.7884C43.2471 31.4149 43.1537 31.1296 42.9669 30.9328C42.7802 30.7308 42.5252 30.6299 42.2022 30.6299C41.8791 30.6299 41.6216 30.7308 41.4298 30.9328C41.243 31.1296 41.1496 31.4149 41.1496 31.7884V34.1206H40.2864V28.5173H41.1496V30.433C41.296 30.2563 41.4803 30.12 41.7024 30.0241C41.9296 29.9282 42.1769 29.8803 42.4445 29.8803Z" fill="#4D4D4D"/>
<path d="M37.7445 32.0383L39.6678 34.1206H38.5017L36.957 32.326V34.1206H36.0938V28.5173H36.957V31.7733L38.4714 29.9484H39.6678L37.7445 32.0383Z" fill="#4D4D4D"/>
<path d="M35.2443 31.9323C35.2443 32.0887 35.2342 32.2301 35.214 32.3563H32.0262C32.0514 32.6895 32.1751 32.957 32.3972 33.1589C32.6193 33.3608 32.8919 33.4618 33.215 33.4618C33.6794 33.4618 34.0075 33.2675 34.1993 32.8788H35.1307C35.0045 33.2624 34.7748 33.5779 34.4417 33.8253C34.1135 34.0676 33.7046 34.1887 33.215 34.1887C32.8162 34.1887 32.4578 34.1004 32.1398 33.9237C31.8268 33.742 31.5794 33.4896 31.3977 33.1665C31.221 32.8384 31.1327 32.4598 31.1327 32.0307C31.1327 31.6016 31.2185 31.2255 31.3901 30.9025C31.5668 30.5743 31.8116 30.3219 32.1246 30.1453C32.4426 29.9686 32.8061 29.8802 33.215 29.8802C33.6087 29.8802 33.9596 29.9661 34.2675 30.1377C34.5754 30.3093 34.8152 30.5516 34.9868 30.8646C35.1585 31.1725 35.2443 31.5284 35.2443 31.9323ZM34.3432 31.6597C34.3382 31.3416 34.2246 31.0867 34.0025 30.8949C33.7804 30.7031 33.5052 30.6072 33.1771 30.6072C32.8793 30.6072 32.6244 30.7031 32.4124 30.8949C32.2003 31.0817 32.0741 31.3366 32.0338 31.6597H34.3432Z" fill="#4D4D4D"/>
<path d="M27.7708 28.858C28.3311 28.858 28.8208 28.9666 29.2398 29.1836C29.6638 29.3956 29.9894 29.7036 30.2165 30.1074C30.4487 30.5062 30.5648 30.9731 30.5648 31.5082C30.5648 32.0433 30.4487 32.5077 30.2165 32.9015C29.9894 33.2952 29.6638 33.5981 29.2398 33.8101C28.8208 34.0171 28.3311 34.1206 27.7708 34.1206H26.0519V28.858H27.7708ZM27.7708 33.4164C28.3866 33.4164 28.8586 33.2498 29.1867 32.9166C29.5149 32.5835 29.6789 32.114 29.6789 31.5082C29.6789 30.8974 29.5149 30.4204 29.1867 30.0771C28.8586 29.7339 28.3866 29.5622 27.7708 29.5622H26.9151V33.4164H27.7708Z" fill="#4D4D4D"/>
<path d="M24.0091 30.5542C24.1353 30.3421 24.3019 30.1781 24.5089 30.062C24.7209 29.9408 24.9708 29.8802 25.2585 29.8802V30.7737H25.0389C24.7007 30.7737 24.4433 30.8596 24.2666 31.0312C24.095 31.2028 24.0091 31.5007 24.0091 31.9247V34.1206H23.1459V29.9484H24.0091V30.5542Z" fill="#4D4D4D"/>
<path d="M17.7264 32.0156C17.7264 31.5966 17.8123 31.2255 17.9839 30.9025C18.1606 30.5794 18.3978 30.3295 18.6957 30.1528C18.9985 29.9711 19.3317 29.8802 19.6952 29.8802C20.0233 29.8802 20.3085 29.9459 20.5508 30.0771C20.7981 30.2033 20.995 30.3623 21.1414 30.5542V29.9484H22.0122V34.1206H21.1414V33.4997C20.995 33.6965 20.7956 33.8606 20.5432 33.9918C20.2908 34.1231 20.0031 34.1887 19.68 34.1887C19.3216 34.1887 18.9935 34.0978 18.6957 33.9161C18.3978 33.7293 18.1606 33.4719 17.9839 33.1438C17.8123 32.8106 17.7264 32.4345 17.7264 32.0156ZM21.1414 32.0307C21.1414 31.743 21.0808 31.4931 20.9597 31.2811C20.8436 31.0691 20.6896 30.9075 20.4978 30.7965C20.306 30.6854 20.099 30.6299 19.8769 30.6299C19.6548 30.6299 19.4478 30.6854 19.256 30.7965C19.0642 30.9025 18.9077 31.0615 18.7865 31.2735C18.6704 31.4805 18.6124 31.7278 18.6124 32.0156C18.6124 32.3033 18.6704 32.5557 18.7865 32.7728C18.9077 32.9898 19.0642 33.1564 19.256 33.2725C19.4529 33.3836 19.6598 33.4391 19.8769 33.4391C20.099 33.4391 20.306 33.3836 20.4978 33.2725C20.6896 33.1614 20.8436 32.9999 20.9597 32.7879C21.0808 32.5708 21.1414 32.3184 21.1414 32.0307Z" fill="#4D4D4D"/>
<path d="M11.87 31.478C11.87 30.9631 11.9886 30.5012 12.2259 30.0923C12.4682 29.6834 12.7938 29.3654 13.2027 29.1382C13.6166 28.906 14.0684 28.7899 14.5581 28.7899C15.1184 28.7899 15.6156 28.9287 16.0497 29.2064C16.4889 29.479 16.8069 29.8677 17.0038 30.3725H15.9664C15.8301 30.0948 15.6408 29.8879 15.3985 29.7516C15.1562 29.6153 14.8761 29.5471 14.5581 29.5471C14.2097 29.5471 13.8993 29.6254 13.6267 29.7818C13.3541 29.9383 13.1396 30.163 12.9831 30.4558C12.8316 30.7485 12.7559 31.0893 12.7559 31.478C12.7559 31.8667 12.8316 32.2074 12.9831 32.5002C13.1396 32.793 13.3541 33.0201 13.6267 33.1817C13.8993 33.3382 14.2097 33.4164 14.5581 33.4164C14.8761 33.4164 15.1562 33.3483 15.3985 33.212C15.6408 33.0757 15.8301 32.8687 15.9664 32.5911H17.0038C16.8069 33.0959 16.4889 33.4846 16.0497 33.7571C15.6156 34.0297 15.1184 34.166 14.5581 34.166C14.0633 34.166 13.6116 34.0525 13.2027 33.8253C12.7938 33.5931 12.4682 33.2725 12.2259 32.8636C11.9886 32.4548 11.87 31.9929 11.87 31.478Z" fill="#4D4D4D"/>
<path d="M9.53933 29.9484L6.98 36.0817H6.0865L6.93457 34.0524L5.29144 29.9484H6.25309L7.42674 33.1286L8.64584 29.9484H9.53933Z" fill="#4D4D4D"/>
<path d="M3.83094 31.4174C4.11363 31.4678 4.35341 31.6168 4.55028 31.8641C4.74715 32.1115 4.84559 32.3916 4.84559 32.7046C4.84559 32.9721 4.77492 33.2145 4.63357 33.4315C4.49728 33.6435 4.29788 33.8126 4.03539 33.9388C3.77289 34.06 3.46749 34.1206 3.11917 34.1206H1.01416V28.858H3.02074C3.37915 28.858 3.68707 28.9186 3.94452 29.0398C4.20197 29.1609 4.39632 29.325 4.52756 29.5319C4.65881 29.7339 4.72444 29.961 4.72444 30.2134C4.72444 30.5163 4.64367 30.7687 4.48213 30.9706C4.3206 31.1725 4.10353 31.3215 3.83094 31.4174ZM1.87737 31.0691H2.94502C3.22771 31.0691 3.44729 31.006 3.60378 30.8798C3.76532 30.7485 3.84609 30.5617 3.84609 30.3194C3.84609 30.0822 3.76532 29.8979 3.60378 29.7667C3.44729 29.6304 3.22771 29.5622 2.94502 29.5622H1.87737V31.0691ZM3.04345 33.4164C3.33624 33.4164 3.56592 33.3457 3.73251 33.2044C3.89909 33.063 3.98238 32.8661 3.98238 32.6137C3.98238 32.3563 3.89404 32.1518 3.71736 32.0004C3.54068 31.849 3.30595 31.7732 3.01317 31.7732H1.87737V33.4164H3.04345Z" fill="#4D4D4D"/>
<path d="M64.5832 11.8463C64.6859 18.2104 59.3926 23.708 52.6583 23.6686C46.2788 23.6371 40.9466 18.3206 40.9544 11.9408C40.9544 5.25381 46.1922 0.00822167 52.8631 0.0161222C59.3616 0.0161222 64.6859 5.41923 64.5832 11.8463ZM52.8084 4.89938C49.0985 4.82851 45.7511 7.8924 45.822 11.9881C45.885 15.6584 48.8859 18.8956 52.9816 18.7932C56.5812 18.7065 59.7396 15.8474 59.7396 11.8148C59.7396 7.86876 56.5101 4.8679 52.8084 4.89938Z" fill="#4D4D4D"/>
<path d="M3.49475 3.42639C4.83371 2.08744 6.39321 1.10291 8.2048 0.575215C12.4816 -0.68504 16.3567 0.118383 19.7199 3.05622C21.7126 4.79689 22.9728 7.01797 23.4139 9.65656C24.2015 14.3193 22.7444 18.1866 19.1135 21.1717C16.8687 23.0148 14.2065 23.826 11.3081 23.7C8.56707 23.5739 6.11754 22.6367 4.05399 20.7936C4.17997 20.6755 4.29027 20.7936 4.40052 20.8252C5.22752 21.1323 6.47987 20.7464 6.99183 20.0297C7.67704 19.0766 7.74797 18.0842 7.14935 17.0603C7.19663 17.0839 7.24385 17.0997 7.28323 17.1312C9.16569 18.6355 11.2687 19.1475 13.6236 18.5568C16.3488 17.8636 18.5306 15.2802 18.7432 12.4763C18.8929 10.4993 18.3101 8.76654 17.0105 7.27006C15.1123 5.08046 11.8909 4.33216 9.22081 5.42699C8.55133 5.70266 7.97635 6.11221 7.3699 6.47454C7.21237 6.51392 7.11787 6.42726 7.00757 6.34065C6.36173 5.8208 5.69225 5.32459 5.06999 4.78115C4.5502 4.33216 3.96732 3.95415 3.50265 3.43429L3.49475 3.42639Z" fill="#4D4D4D"/>
<path d="M32.3613 0.0160828C35.819 0.0160828 39.2688 0.0160828 42.7265 0.0160828C42.9785 0.0160828 43.1991 0.0318832 43.3172 0.307551C43.4275 0.583219 43.3172 0.787964 43.1203 0.969129C42.1043 1.88279 41.2143 2.8988 40.4818 4.04876C40.025 4.75762 39.3633 5.04118 38.5285 5.01754C37.5833 4.9939 36.646 4.9939 35.7009 5.0097C35.1102 5.0097 34.9999 5.14359 34.9999 5.7264C34.9999 11.3895 34.9999 17.0604 34.9999 22.7235C34.9999 23.393 34.7164 23.6765 34.039 23.6844C32.9205 23.6844 31.8021 23.6844 30.6837 23.6844C29.9512 23.6844 29.6833 23.4166 29.6833 22.6841C29.6833 17.0446 29.6833 11.4052 29.6833 5.75794C29.6833 5.15143 29.5337 5.0097 28.9351 5.0097C27.9191 5.0097 26.903 5.0097 25.8791 5.0097C25.1781 5.0097 24.6189 4.69465 24.2409 4.10388C23.5005 2.95399 22.6183 1.93008 21.6102 1.02425C21.3975 0.827346 21.2636 0.63834 21.3581 0.339032C21.4605 0.0318835 21.7126 0.0239836 21.9725 0.0239836C25.438 0.0239836 28.9115 0.0239836 32.3771 0.0239836L32.3613 0.0160828Z" fill="#4D4D4D"/>
<path d="M3.49468 3.42646C3.95941 3.93842 4.54223 4.32433 5.06209 4.77326C5.69218 5.31675 6.36166 5.81297 6.99966 6.33276C7.1099 6.41942 7.2123 6.50609 7.36193 6.4667C7.33045 6.64781 7.44859 6.72657 7.56673 6.82897C8.69304 7.7269 9.81936 8.62476 10.9299 9.54633C11.2134 9.78262 11.4891 9.94014 11.8829 9.98736C12.71 10.0898 13.3085 10.5545 13.5212 11.3893C13.7102 12.1534 13.4897 12.8386 12.8596 13.3427C11.8672 14.1303 10.284 13.6892 9.90602 12.2952C9.86664 12.1534 9.8351 12.0431 9.71695 11.9486C8.44886 10.9247 7.18866 9.90076 5.93631 8.85321C5.69218 8.6484 5.60552 8.71933 5.51102 8.96345C5.35349 9.3809 5.19597 9.80626 5.07782 10.2394C4.64463 11.8856 4.89666 13.4372 5.59768 14.9573C5.96785 15.7607 6.54283 16.4223 7.14138 17.0603C7.74 18.0842 7.66914 19.0766 6.98386 20.0297C6.4719 20.7464 5.21961 21.1323 4.39261 20.8252C4.2823 20.7858 4.1799 20.6755 4.04602 20.7936C1.60439 18.7143 0.336294 16.0285 0.0527256 12.8622C-0.17566 10.3418 0.336294 7.96319 1.62013 5.76568C1.68315 5.66328 1.79339 5.5294 1.65951 5.4349C1.20268 5.10411 1.08453 4.56851 0.848247 4.10378C0.627701 3.66275 0.430796 3.19802 0.233891 2.74908C0.21025 2.69396 0.20241 2.63094 0.17877 2.53644C0.651343 2.62304 1.07663 2.73334 1.50989 2.85149C1.94308 2.96963 2.39201 3.04839 2.8331 3.15073C3.08513 3.20592 3.23475 3.46584 3.50258 3.4343L3.49468 3.42646Z" fill="#1BA0BA"/>
<path d="M1.70673 5.60034L5.68421 8.72725C5.68421 8.72725 5.2983 9.2392 4.999 10.6412" fill="#367B80"/>
</svg>
